<svg
    version="1.0"
    xmlns="http://www.w3.org/2000/svg"
    viewBox="0 0 151.000000 177.000000"
    height="100px"
    width="100px"
    preserveAspectRatio="xMidYMid meet"
>
    <g
        transform="translate(0.000000,177.000000) scale(0.100000,-0.100000)"
        stroke="none"
        fill="#C7F8FF"
    >
        <path
            d="M794 1638 c-20 -40 -51 -100 -69 -133 -33 -61 -109 -207 -230 -440
              -37 -71 -89 -170 -115 -220 -158 -300 -199 -383 -193 -389 3 -3 75 -6 160 -6
              96 0 153 -4 153 -10 0 -6 -40 -91 -90 -190 -49 -99 -90 -182 -90 -185 0 -3 34
              -5 75 -5 l75 0 96 195 97 195 394 0 c216 0 393 2 393 5 0 10 -453 900 -464
              913 -10 10 -55 -74 -212 -385 l-199 -398 -79 -3 c-110 -4 -111 -3 -77 60 15
              29 58 112 96 183 37 72 91 175 120 230 64 123 168 322 225 432 l43 82 -28 66
              c-16 36 -32 68 -36 71 -5 3 -25 -28 -45 -68z m315 -798 c66 -132 121 -244 121
              -250 0 -6 -87 -10 -250 -10 -137 0 -250 2 -250 4 0 13 243 496 250 496 4 0 62
              -108 129 -240z"
        />
    </g>
</svg> 