<svg id="visual" viewBox="0 0 1920 1080" width="1920" height="1080" xmlns="http://www.w3.org/2000/svg" xmlns:xlink="http://www.w3.org/1999/xlink" version="1.1"><rect x="0" y="0" width="1920" height="1080" fill="#dcdcdc"></rect><path d="M0 740L64 746.8C128 753.7 256 767.3 384 752.8C512 738.3 640 695.7 768 659C896 622.3 1024 591.7 1152 594.8C1280 598 1408 635 1536 642C1664 649 1792 626 1856 614.5L1920 603L1920 1081L1856 1081C1792 1081 1664 1081 1536 1081C1408 1081 1280 1081 1152 1081C1024 1081 896 1081 768 1081C640 1081 512 1081 384 1081C256 1081 128 1081 64 1081L0 1081Z" fill="#448fff" stroke-linecap="round" stroke-linejoin="miter"></path></svg>