<svg id="visual" viewBox="0 0 1920 1080" width="1920" height="1080" xmlns="http://www.w3.org/2000/svg" xmlns:xlink="http://www.w3.org/1999/xlink" version="1.1"><rect x="0" y="0" width="1920" height="1080" fill="#0a0a0a"></rect><path d="M0 475L64 529.2C128 583.3 256 691.7 384 693.3C512 695 640 590 768 571.2C896 552.3 1024 619.7 1152 626C1280 632.3 1408 577.7 1536 580.2C1664 582.7 1792 642.3 1856 672.2L1920 702L1920 1081L1856 1081C1792 1081 1664 1081 1536 1081C1408 1081 1280 1081 1152 1081C1024 1081 896 1081 768 1081C640 1081 512 1081 384 1081C256 1081 128 1081 64 1081L0 1081Z" fill="#2e2e2e" stroke-linecap="round" stroke-linejoin="miter"></path></svg>